<mxfile host="app.diagrams.net" modified="2024-05-06T12:06:40.565Z" agent="Mozilla/5.0 (X11; Linux x86_64; rv:125.0) Gecko/20100101 Firefox/125.0" etag="YdBy_-Y4lOeVtUq2UiOp" version="24.3.1" type="github">
  <diagram name="Page-1" id="xQmfJpdgPRTWPDpoaqdf">
    <mxGraphModel dx="890" dy="948" grid="1" gridSize="10" guides="1" tooltips="1" connect="1" arrows="1" fold="1" page="1" pageScale="1" pageWidth="1100" pageHeight="1100" math="0" shadow="0">
      <root>
        <mxCell id="0" />
        <mxCell id="1" parent="0" />
        <mxCell id="tr0Whg6YNkIq0rUrmcpO-4" value="" style="shape=table;startSize=0;container=1;collapsible=0;childLayout=tableLayout;" parent="1" vertex="1">
          <mxGeometry x="319" y="171" width="626" height="40" as="geometry" />
        </mxCell>
        <mxCell id="tr0Whg6YNkIq0rUrmcpO-5" value="" style="shape=tableRow;horizontal=0;startSize=0;swimlaneHead=0;swimlaneBody=0;strokeColor=inherit;top=0;left=0;bottom=0;right=0;collapsible=0;dropTarget=0;fillColor=none;points=[[0,0.5],[1,0.5]];portConstraint=eastwest;" parent="tr0Whg6YNkIq0rUrmcpO-4" vertex="1">
          <mxGeometry width="626" height="40" as="geometry" />
        </mxCell>
        <mxCell id="tr0Whg6YNkIq0rUrmcpO-6" value="&lt;div&gt;&lt;u&gt;User_ID&lt;/u&gt;&lt;/div&gt;" style="shape=partialRectangle;html=1;whiteSpace=wrap;connectable=0;strokeColor=inherit;overflow=hidden;fillColor=none;top=0;left=0;bottom=0;right=0;pointerEvents=1;" parent="tr0Whg6YNkIq0rUrmcpO-5" vertex="1">
          <mxGeometry width="69" height="40" as="geometry">
            <mxRectangle width="69" height="40" as="alternateBounds" />
          </mxGeometry>
        </mxCell>
        <mxCell id="tr0Whg6YNkIq0rUrmcpO-7" value="&lt;div&gt;First_Name&lt;/div&gt;" style="shape=partialRectangle;html=1;whiteSpace=wrap;connectable=0;strokeColor=inherit;overflow=hidden;fillColor=none;top=0;left=0;bottom=0;right=0;pointerEvents=1;" parent="tr0Whg6YNkIq0rUrmcpO-5" vertex="1">
          <mxGeometry x="69" width="69" height="40" as="geometry">
            <mxRectangle width="69" height="40" as="alternateBounds" />
          </mxGeometry>
        </mxCell>
        <mxCell id="tr0Whg6YNkIq0rUrmcpO-8" value="&lt;div&gt;Last_Name&lt;/div&gt;" style="shape=partialRectangle;html=1;whiteSpace=wrap;connectable=0;strokeColor=inherit;overflow=hidden;fillColor=none;top=0;left=0;bottom=0;right=0;pointerEvents=1;" parent="tr0Whg6YNkIq0rUrmcpO-5" vertex="1">
          <mxGeometry x="138" width="68" height="40" as="geometry">
            <mxRectangle width="68" height="40" as="alternateBounds" />
          </mxGeometry>
        </mxCell>
        <mxCell id="tr0Whg6YNkIq0rUrmcpO-9" value="&lt;div&gt;Username&lt;/div&gt;" style="shape=partialRectangle;html=1;whiteSpace=wrap;connectable=0;strokeColor=inherit;overflow=hidden;fillColor=none;top=0;left=0;bottom=0;right=0;pointerEvents=1;" parent="tr0Whg6YNkIq0rUrmcpO-5" vertex="1">
          <mxGeometry x="206" width="69" height="40" as="geometry">
            <mxRectangle width="69" height="40" as="alternateBounds" />
          </mxGeometry>
        </mxCell>
        <mxCell id="tr0Whg6YNkIq0rUrmcpO-10" value="&lt;div&gt;Email&lt;/div&gt;" style="shape=partialRectangle;html=1;whiteSpace=wrap;connectable=0;strokeColor=inherit;overflow=hidden;fillColor=none;top=0;left=0;bottom=0;right=0;pointerEvents=1;" parent="tr0Whg6YNkIq0rUrmcpO-5" vertex="1">
          <mxGeometry x="275" width="69" height="40" as="geometry">
            <mxRectangle width="69" height="40" as="alternateBounds" />
          </mxGeometry>
        </mxCell>
        <mxCell id="tr0Whg6YNkIq0rUrmcpO-11" value="Password" style="shape=partialRectangle;html=1;whiteSpace=wrap;connectable=0;strokeColor=inherit;overflow=hidden;fillColor=none;top=0;left=0;bottom=0;right=0;pointerEvents=1;" parent="tr0Whg6YNkIq0rUrmcpO-5" vertex="1">
          <mxGeometry x="344" width="69" height="40" as="geometry">
            <mxRectangle width="69" height="40" as="alternateBounds" />
          </mxGeometry>
        </mxCell>
        <mxCell id="tr0Whg6YNkIq0rUrmcpO-12" value="&lt;div&gt;Phone_num&lt;/div&gt;" style="shape=partialRectangle;html=1;whiteSpace=wrap;connectable=0;strokeColor=inherit;overflow=hidden;fillColor=none;top=0;left=0;bottom=0;right=0;pointerEvents=1;" parent="tr0Whg6YNkIq0rUrmcpO-5" vertex="1">
          <mxGeometry x="413" width="75" height="40" as="geometry">
            <mxRectangle width="75" height="40" as="alternateBounds" />
          </mxGeometry>
        </mxCell>
        <mxCell id="tr0Whg6YNkIq0rUrmcpO-13" value="Address" style="shape=partialRectangle;html=1;whiteSpace=wrap;connectable=0;strokeColor=inherit;overflow=hidden;fillColor=none;top=0;left=0;bottom=0;right=0;pointerEvents=1;" parent="tr0Whg6YNkIq0rUrmcpO-5" vertex="1">
          <mxGeometry x="488" width="69" height="40" as="geometry">
            <mxRectangle width="69" height="40" as="alternateBounds" />
          </mxGeometry>
        </mxCell>
        <mxCell id="vyuRnfYYCVV1Z0dcyBoy-5" value="&lt;div&gt;role_name&lt;/div&gt;" style="shape=partialRectangle;html=1;whiteSpace=wrap;connectable=0;strokeColor=inherit;overflow=hidden;fillColor=none;top=0;left=0;bottom=0;right=0;pointerEvents=1;" vertex="1" parent="tr0Whg6YNkIq0rUrmcpO-5">
          <mxGeometry x="557" width="69" height="40" as="geometry">
            <mxRectangle width="69" height="40" as="alternateBounds" />
          </mxGeometry>
        </mxCell>
        <mxCell id="tr0Whg6YNkIq0rUrmcpO-14" value="" style="shape=table;startSize=0;container=1;collapsible=0;childLayout=tableLayout;strokeColor=#99FFCC;" parent="1" vertex="1">
          <mxGeometry x="319" y="291" width="258" height="40" as="geometry" />
        </mxCell>
        <mxCell id="tr0Whg6YNkIq0rUrmcpO-15" value="" style="shape=tableRow;horizontal=0;startSize=0;swimlaneHead=0;swimlaneBody=0;strokeColor=inherit;top=0;left=0;bottom=0;right=0;collapsible=0;dropTarget=0;fillColor=none;points=[[0,0.5],[1,0.5]];portConstraint=eastwest;" parent="tr0Whg6YNkIq0rUrmcpO-14" vertex="1">
          <mxGeometry width="258" height="40" as="geometry" />
        </mxCell>
        <mxCell id="tr0Whg6YNkIq0rUrmcpO-16" value="&lt;u&gt;Id&lt;/u&gt;" style="shape=partialRectangle;html=1;whiteSpace=wrap;connectable=0;strokeColor=inherit;overflow=hidden;fillColor=none;top=0;left=0;bottom=0;right=0;pointerEvents=1;" parent="tr0Whg6YNkIq0rUrmcpO-15" vertex="1">
          <mxGeometry width="60" height="40" as="geometry">
            <mxRectangle width="60" height="40" as="alternateBounds" />
          </mxGeometry>
        </mxCell>
        <mxCell id="tr0Whg6YNkIq0rUrmcpO-17" value="&lt;div&gt;Username&lt;/div&gt;" style="shape=partialRectangle;html=1;whiteSpace=wrap;connectable=0;strokeColor=inherit;overflow=hidden;fillColor=none;top=0;left=0;bottom=0;right=0;pointerEvents=1;" parent="tr0Whg6YNkIq0rUrmcpO-15" vertex="1">
          <mxGeometry x="60" width="69" height="40" as="geometry">
            <mxRectangle width="69" height="40" as="alternateBounds" />
          </mxGeometry>
        </mxCell>
        <mxCell id="tr0Whg6YNkIq0rUrmcpO-18" value="&lt;div&gt;Email&lt;/div&gt;" style="shape=partialRectangle;html=1;whiteSpace=wrap;connectable=0;strokeColor=inherit;overflow=hidden;fillColor=none;top=0;left=0;bottom=0;right=0;pointerEvents=1;" parent="tr0Whg6YNkIq0rUrmcpO-15" vertex="1">
          <mxGeometry x="129" width="60" height="40" as="geometry">
            <mxRectangle width="60" height="40" as="alternateBounds" />
          </mxGeometry>
        </mxCell>
        <mxCell id="tr0Whg6YNkIq0rUrmcpO-19" value="Password" style="shape=partialRectangle;html=1;whiteSpace=wrap;connectable=0;strokeColor=inherit;overflow=hidden;fillColor=none;top=0;left=0;bottom=0;right=0;pointerEvents=1;" parent="tr0Whg6YNkIq0rUrmcpO-15" vertex="1">
          <mxGeometry x="189" width="69" height="40" as="geometry">
            <mxRectangle width="69" height="40" as="alternateBounds" />
          </mxGeometry>
        </mxCell>
        <mxCell id="tr0Whg6YNkIq0rUrmcpO-20" value="" style="shape=table;startSize=0;container=1;collapsible=0;childLayout=tableLayout;strokeColor=#007FFF;" parent="1" vertex="1">
          <mxGeometry x="319" y="410" width="593" height="40" as="geometry" />
        </mxCell>
        <mxCell id="tr0Whg6YNkIq0rUrmcpO-21" value="" style="shape=tableRow;horizontal=0;startSize=0;swimlaneHead=0;swimlaneBody=0;strokeColor=inherit;top=0;left=0;bottom=0;right=0;collapsible=0;dropTarget=0;fillColor=none;points=[[0,0.5],[1,0.5]];portConstraint=eastwest;" parent="tr0Whg6YNkIq0rUrmcpO-20" vertex="1">
          <mxGeometry width="593" height="40" as="geometry" />
        </mxCell>
        <mxCell id="tr0Whg6YNkIq0rUrmcpO-22" value="&lt;div&gt;&lt;u&gt;Item_ID&lt;/u&gt;&lt;/div&gt;" style="shape=partialRectangle;html=1;whiteSpace=wrap;connectable=0;strokeColor=inherit;overflow=hidden;fillColor=none;top=0;left=0;bottom=0;right=0;pointerEvents=1;" parent="tr0Whg6YNkIq0rUrmcpO-21" vertex="1">
          <mxGeometry width="60" height="40" as="geometry">
            <mxRectangle width="60" height="40" as="alternateBounds" />
          </mxGeometry>
        </mxCell>
        <mxCell id="tr0Whg6YNkIq0rUrmcpO-23" value="Name" style="shape=partialRectangle;html=1;whiteSpace=wrap;connectable=0;strokeColor=inherit;overflow=hidden;fillColor=none;top=0;left=0;bottom=0;right=0;pointerEvents=1;" parent="tr0Whg6YNkIq0rUrmcpO-21" vertex="1">
          <mxGeometry x="60" width="60" height="40" as="geometry">
            <mxRectangle width="60" height="40" as="alternateBounds" />
          </mxGeometry>
        </mxCell>
        <mxCell id="tr0Whg6YNkIq0rUrmcpO-24" value="&lt;div&gt;Description&lt;/div&gt;" style="shape=partialRectangle;html=1;whiteSpace=wrap;connectable=0;strokeColor=inherit;overflow=hidden;fillColor=none;top=0;left=0;bottom=0;right=0;pointerEvents=1;" parent="tr0Whg6YNkIq0rUrmcpO-21" vertex="1">
          <mxGeometry x="120" width="73" height="40" as="geometry">
            <mxRectangle width="73" height="40" as="alternateBounds" />
          </mxGeometry>
        </mxCell>
        <mxCell id="tr0Whg6YNkIq0rUrmcpO-25" value="&lt;div&gt;Price&lt;/div&gt;" style="shape=partialRectangle;html=1;whiteSpace=wrap;connectable=0;strokeColor=inherit;overflow=hidden;fillColor=none;top=0;left=0;bottom=0;right=0;pointerEvents=1;" parent="tr0Whg6YNkIq0rUrmcpO-21" vertex="1">
          <mxGeometry x="193" width="60" height="40" as="geometry">
            <mxRectangle width="60" height="40" as="alternateBounds" />
          </mxGeometry>
        </mxCell>
        <mxCell id="tr0Whg6YNkIq0rUrmcpO-26" value="Picture" style="shape=partialRectangle;html=1;whiteSpace=wrap;connectable=0;strokeColor=inherit;overflow=hidden;fillColor=none;top=0;left=0;bottom=0;right=0;pointerEvents=1;" parent="tr0Whg6YNkIq0rUrmcpO-21" vertex="1">
          <mxGeometry x="253" width="60" height="40" as="geometry">
            <mxRectangle width="60" height="40" as="alternateBounds" />
          </mxGeometry>
        </mxCell>
        <mxCell id="tr0Whg6YNkIq0rUrmcpO-27" value="Rate" style="shape=partialRectangle;html=1;whiteSpace=wrap;connectable=0;strokeColor=inherit;overflow=hidden;fillColor=none;top=0;left=0;bottom=0;right=0;pointerEvents=1;" parent="tr0Whg6YNkIq0rUrmcpO-21" vertex="1">
          <mxGeometry x="313" width="60" height="40" as="geometry">
            <mxRectangle width="60" height="40" as="alternateBounds" />
          </mxGeometry>
        </mxCell>
        <mxCell id="tr0Whg6YNkIq0rUrmcpO-28" value="&lt;div&gt;Amount&lt;/div&gt;" style="shape=partialRectangle;html=1;whiteSpace=wrap;connectable=0;strokeColor=inherit;overflow=hidden;fillColor=none;top=0;left=0;bottom=0;right=0;pointerEvents=1;" parent="tr0Whg6YNkIq0rUrmcpO-21" vertex="1">
          <mxGeometry x="373" width="60" height="40" as="geometry">
            <mxRectangle width="60" height="40" as="alternateBounds" />
          </mxGeometry>
        </mxCell>
        <mxCell id="tr0Whg6YNkIq0rUrmcpO-29" value="Offer" style="shape=partialRectangle;html=1;whiteSpace=wrap;connectable=0;strokeColor=inherit;overflow=hidden;fillColor=none;top=0;left=0;bottom=0;right=0;pointerEvents=1;" parent="tr0Whg6YNkIq0rUrmcpO-21" vertex="1">
          <mxGeometry x="433" width="60" height="40" as="geometry">
            <mxRectangle width="60" height="40" as="alternateBounds" />
          </mxGeometry>
        </mxCell>
        <mxCell id="tr0Whg6YNkIq0rUrmcpO-99" value="Category_Name" style="shape=partialRectangle;html=1;whiteSpace=wrap;connectable=0;strokeColor=inherit;overflow=hidden;fillColor=none;top=0;left=0;bottom=0;right=0;pointerEvents=1;" parent="tr0Whg6YNkIq0rUrmcpO-21" vertex="1">
          <mxGeometry x="493" width="100" height="40" as="geometry">
            <mxRectangle width="100" height="40" as="alternateBounds" />
          </mxGeometry>
        </mxCell>
        <mxCell id="tr0Whg6YNkIq0rUrmcpO-30" value="&lt;div style=&quot;font-size: 18px;&quot;&gt;&lt;font size=&quot;1&quot;&gt;&lt;b&gt;&lt;font style=&quot;font-size: 17px;&quot;&gt;user&lt;/font&gt;&lt;/b&gt;&lt;/font&gt;&lt;/div&gt;" style="text;html=1;align=center;verticalAlign=middle;resizable=0;points=[];autosize=1;strokeColor=none;fillColor=none;" parent="1" vertex="1">
          <mxGeometry x="238" y="171" width="60" height="40" as="geometry" />
        </mxCell>
        <mxCell id="tr0Whg6YNkIq0rUrmcpO-31" value="&lt;font style=&quot;font-size: 17px;&quot;&gt;&lt;b&gt;Items&lt;/b&gt;&lt;/font&gt;" style="text;html=1;align=center;verticalAlign=middle;resizable=0;points=[];autosize=1;strokeColor=none;fillColor=none;" parent="1" vertex="1">
          <mxGeometry x="228" y="415" width="70" height="30" as="geometry" />
        </mxCell>
        <mxCell id="tr0Whg6YNkIq0rUrmcpO-32" value="&lt;div style=&quot;font-size: 18px;&quot;&gt;&lt;font size=&quot;1&quot;&gt;&lt;b&gt;&lt;font style=&quot;font-size: 17px;&quot;&gt;Admin&lt;/font&gt;&lt;/b&gt;&lt;/font&gt;&lt;/div&gt;" style="text;html=1;align=center;verticalAlign=middle;resizable=0;points=[];autosize=1;strokeColor=none;fillColor=none;" parent="1" vertex="1">
          <mxGeometry x="218" y="291" width="80" height="40" as="geometry" />
        </mxCell>
        <mxCell id="tr0Whg6YNkIq0rUrmcpO-40" value="&lt;div&gt;&lt;font style=&quot;font-size: 17px;&quot;&gt;&lt;b&gt;Comment&lt;/b&gt;&lt;/font&gt;&lt;/div&gt;" style="text;html=1;align=center;verticalAlign=middle;resizable=0;points=[];autosize=1;strokeColor=none;fillColor=none;" parent="1" vertex="1">
          <mxGeometry x="198" y="534" width="100" height="30" as="geometry" />
        </mxCell>
        <mxCell id="tr0Whg6YNkIq0rUrmcpO-42" value="" style="shape=table;startSize=0;container=1;collapsible=0;childLayout=tableLayout;strokeColor=#CC99FF;" parent="1" vertex="1">
          <mxGeometry x="319" y="529" width="270" height="40" as="geometry" />
        </mxCell>
        <mxCell id="tr0Whg6YNkIq0rUrmcpO-43" value="" style="shape=tableRow;horizontal=0;startSize=0;swimlaneHead=0;swimlaneBody=0;strokeColor=inherit;top=0;left=0;bottom=0;right=0;collapsible=0;dropTarget=0;fillColor=none;points=[[0,0.5],[1,0.5]];portConstraint=eastwest;" parent="tr0Whg6YNkIq0rUrmcpO-42" vertex="1">
          <mxGeometry width="270" height="40" as="geometry" />
        </mxCell>
        <mxCell id="tr0Whg6YNkIq0rUrmcpO-44" value="&lt;u&gt;Comment_id&lt;/u&gt;" style="shape=partialRectangle;html=1;whiteSpace=wrap;connectable=0;strokeColor=inherit;overflow=hidden;fillColor=none;top=0;left=0;bottom=0;right=0;pointerEvents=1;" parent="tr0Whg6YNkIq0rUrmcpO-43" vertex="1">
          <mxGeometry width="80" height="40" as="geometry">
            <mxRectangle width="80" height="40" as="alternateBounds" />
          </mxGeometry>
        </mxCell>
        <mxCell id="tr0Whg6YNkIq0rUrmcpO-45" value="&lt;div&gt;Item_ID&lt;/div&gt;" style="shape=partialRectangle;html=1;whiteSpace=wrap;connectable=0;strokeColor=inherit;overflow=hidden;fillColor=none;top=0;left=0;bottom=0;right=0;pointerEvents=1;" parent="tr0Whg6YNkIq0rUrmcpO-43" vertex="1">
          <mxGeometry x="80" width="60" height="40" as="geometry">
            <mxRectangle width="60" height="40" as="alternateBounds" />
          </mxGeometry>
        </mxCell>
        <mxCell id="tr0Whg6YNkIq0rUrmcpO-46" value="&lt;div&gt;Description&lt;/div&gt;" style="shape=partialRectangle;html=1;whiteSpace=wrap;connectable=0;strokeColor=inherit;overflow=hidden;fillColor=none;top=0;left=0;bottom=0;right=0;pointerEvents=1;" parent="tr0Whg6YNkIq0rUrmcpO-43" vertex="1">
          <mxGeometry x="140" width="70" height="40" as="geometry">
            <mxRectangle width="70" height="40" as="alternateBounds" />
          </mxGeometry>
        </mxCell>
        <mxCell id="tr0Whg6YNkIq0rUrmcpO-47" value="Rate" style="shape=partialRectangle;html=1;whiteSpace=wrap;connectable=0;strokeColor=inherit;overflow=hidden;fillColor=none;top=0;left=0;bottom=0;right=0;pointerEvents=1;" parent="tr0Whg6YNkIq0rUrmcpO-43" vertex="1">
          <mxGeometry x="210" width="60" height="40" as="geometry">
            <mxRectangle width="60" height="40" as="alternateBounds" />
          </mxGeometry>
        </mxCell>
        <mxCell id="tr0Whg6YNkIq0rUrmcpO-48" value="" style="shape=table;startSize=0;container=1;collapsible=0;childLayout=tableLayout;" parent="1" vertex="1">
          <mxGeometry x="319" y="649" width="190" height="40" as="geometry" />
        </mxCell>
        <mxCell id="tr0Whg6YNkIq0rUrmcpO-49" value="" style="shape=tableRow;horizontal=0;startSize=0;swimlaneHead=0;swimlaneBody=0;strokeColor=inherit;top=0;left=0;bottom=0;right=0;collapsible=0;dropTarget=0;fillColor=none;points=[[0,0.5],[1,0.5]];portConstraint=eastwest;" parent="tr0Whg6YNkIq0rUrmcpO-48" vertex="1">
          <mxGeometry width="190" height="40" as="geometry" />
        </mxCell>
        <mxCell id="tr0Whg6YNkIq0rUrmcpO-50" value="&lt;div&gt;&lt;u&gt;Card_ID&lt;/u&gt;&lt;/div&gt;" style="shape=partialRectangle;html=1;whiteSpace=wrap;connectable=0;strokeColor=inherit;overflow=hidden;fillColor=none;top=0;left=0;bottom=0;right=0;pointerEvents=1;" parent="tr0Whg6YNkIq0rUrmcpO-49" vertex="1">
          <mxGeometry width="60" height="40" as="geometry">
            <mxRectangle width="60" height="40" as="alternateBounds" />
          </mxGeometry>
        </mxCell>
        <mxCell id="tr0Whg6YNkIq0rUrmcpO-51" value="&lt;div&gt;User_ID&lt;/div&gt;" style="shape=partialRectangle;html=1;whiteSpace=wrap;connectable=0;strokeColor=inherit;overflow=hidden;fillColor=none;top=0;left=0;bottom=0;right=0;pointerEvents=1;" parent="tr0Whg6YNkIq0rUrmcpO-49" vertex="1">
          <mxGeometry x="60" width="60" height="40" as="geometry">
            <mxRectangle width="60" height="40" as="alternateBounds" />
          </mxGeometry>
        </mxCell>
        <mxCell id="tr0Whg6YNkIq0rUrmcpO-52" value="&lt;div&gt;&lt;u&gt;Item_ID&lt;/u&gt;&lt;/div&gt;" style="shape=partialRectangle;html=1;whiteSpace=wrap;connectable=0;strokeColor=inherit;overflow=hidden;fillColor=none;top=0;left=0;bottom=0;right=0;pointerEvents=1;" parent="tr0Whg6YNkIq0rUrmcpO-49" vertex="1">
          <mxGeometry x="120" width="70" height="40" as="geometry">
            <mxRectangle width="70" height="40" as="alternateBounds" />
          </mxGeometry>
        </mxCell>
        <mxCell id="tr0Whg6YNkIq0rUrmcpO-53" value="&lt;div&gt;&lt;font style=&quot;font-size: 17px;&quot;&gt;&lt;b&gt;Cart&lt;/b&gt;&lt;/font&gt;&lt;/div&gt;" style="text;html=1;align=center;verticalAlign=middle;resizable=0;points=[];autosize=1;strokeColor=none;fillColor=none;" parent="1" vertex="1">
          <mxGeometry x="238" y="654" width="60" height="30" as="geometry" />
        </mxCell>
        <mxCell id="tr0Whg6YNkIq0rUrmcpO-54" value="" style="shape=table;startSize=0;container=1;collapsible=0;childLayout=tableLayout;" parent="1" vertex="1">
          <mxGeometry x="319" y="770" width="340" height="40" as="geometry" />
        </mxCell>
        <mxCell id="tr0Whg6YNkIq0rUrmcpO-55" value="" style="shape=tableRow;horizontal=0;startSize=0;swimlaneHead=0;swimlaneBody=0;strokeColor=inherit;top=0;left=0;bottom=0;right=0;collapsible=0;dropTarget=0;fillColor=none;points=[[0,0.5],[1,0.5]];portConstraint=eastwest;" parent="tr0Whg6YNkIq0rUrmcpO-54" vertex="1">
          <mxGeometry width="340" height="40" as="geometry" />
        </mxCell>
        <mxCell id="tr0Whg6YNkIq0rUrmcpO-56" value="&lt;div&gt;&lt;u&gt;User_ID&lt;/u&gt;&lt;/div&gt;" style="shape=partialRectangle;html=1;whiteSpace=wrap;connectable=0;strokeColor=inherit;overflow=hidden;fillColor=none;top=0;left=0;bottom=0;right=0;pointerEvents=1;" parent="tr0Whg6YNkIq0rUrmcpO-55" vertex="1">
          <mxGeometry width="60" height="40" as="geometry">
            <mxRectangle width="60" height="40" as="alternateBounds" />
          </mxGeometry>
        </mxCell>
        <mxCell id="tr0Whg6YNkIq0rUrmcpO-57" value="&lt;div&gt;&lt;u&gt;Item_ID&lt;/u&gt;&lt;/div&gt;" style="shape=partialRectangle;html=1;whiteSpace=wrap;connectable=0;strokeColor=inherit;overflow=hidden;fillColor=none;top=0;left=0;bottom=0;right=0;pointerEvents=1;" parent="tr0Whg6YNkIq0rUrmcpO-55" vertex="1">
          <mxGeometry x="60" width="70" height="40" as="geometry">
            <mxRectangle width="70" height="40" as="alternateBounds" />
          </mxGeometry>
        </mxCell>
        <mxCell id="tr0Whg6YNkIq0rUrmcpO-58" value="Price" style="shape=partialRectangle;html=1;whiteSpace=wrap;connectable=0;strokeColor=inherit;overflow=hidden;fillColor=none;top=0;left=0;bottom=0;right=0;pointerEvents=1;" parent="tr0Whg6YNkIq0rUrmcpO-55" vertex="1">
          <mxGeometry x="130" width="60" height="40" as="geometry">
            <mxRectangle width="60" height="40" as="alternateBounds" />
          </mxGeometry>
        </mxCell>
        <mxCell id="tr0Whg6YNkIq0rUrmcpO-59" value="Quantity" style="shape=partialRectangle;html=1;whiteSpace=wrap;connectable=0;strokeColor=inherit;overflow=hidden;fillColor=none;top=0;left=0;bottom=0;right=0;pointerEvents=1;" parent="tr0Whg6YNkIq0rUrmcpO-55" vertex="1">
          <mxGeometry x="190" width="60" height="40" as="geometry">
            <mxRectangle width="60" height="40" as="alternateBounds" />
          </mxGeometry>
        </mxCell>
        <mxCell id="tr0Whg6YNkIq0rUrmcpO-60" value="Shipping_Date" style="shape=partialRectangle;html=1;whiteSpace=wrap;connectable=0;strokeColor=inherit;overflow=hidden;fillColor=none;top=0;left=0;bottom=0;right=0;pointerEvents=1;" parent="tr0Whg6YNkIq0rUrmcpO-55" vertex="1">
          <mxGeometry x="250" width="90" height="40" as="geometry">
            <mxRectangle width="90" height="40" as="alternateBounds" />
          </mxGeometry>
        </mxCell>
        <mxCell id="tr0Whg6YNkIq0rUrmcpO-61" value="&lt;div&gt;&lt;font style=&quot;font-size: 17px;&quot;&gt;&lt;b&gt;Order_History&lt;br&gt;&lt;/b&gt;&lt;/font&gt;&lt;/div&gt;" style="text;html=1;align=center;verticalAlign=middle;resizable=0;points=[];autosize=1;strokeColor=none;fillColor=none;" parent="1" vertex="1">
          <mxGeometry x="158" y="775" width="140" height="30" as="geometry" />
        </mxCell>
        <mxCell id="tr0Whg6YNkIq0rUrmcpO-74" value="" style="shape=table;startSize=0;container=1;collapsible=0;childLayout=tableLayout;" parent="1" vertex="1">
          <mxGeometry x="319" y="852" width="140" height="40" as="geometry" />
        </mxCell>
        <mxCell id="tr0Whg6YNkIq0rUrmcpO-75" value="" style="shape=tableRow;horizontal=0;startSize=0;swimlaneHead=0;swimlaneBody=0;strokeColor=inherit;top=0;left=0;bottom=0;right=0;collapsible=0;dropTarget=0;fillColor=none;points=[[0,0.5],[1,0.5]];portConstraint=eastwest;" parent="tr0Whg6YNkIq0rUrmcpO-74" vertex="1">
          <mxGeometry width="140" height="40" as="geometry" />
        </mxCell>
        <mxCell id="tr0Whg6YNkIq0rUrmcpO-76" value="&lt;div&gt;&lt;u&gt;User_ID&lt;/u&gt;&lt;/div&gt;" style="shape=partialRectangle;html=1;whiteSpace=wrap;connectable=0;strokeColor=inherit;overflow=hidden;fillColor=none;top=0;left=0;bottom=0;right=0;pointerEvents=1;" parent="tr0Whg6YNkIq0rUrmcpO-75" vertex="1">
          <mxGeometry width="60" height="40" as="geometry">
            <mxRectangle width="60" height="40" as="alternateBounds" />
          </mxGeometry>
        </mxCell>
        <mxCell id="tr0Whg6YNkIq0rUrmcpO-77" value="&lt;u&gt;Comment_id&lt;/u&gt;" style="shape=partialRectangle;html=1;whiteSpace=wrap;connectable=0;strokeColor=inherit;overflow=hidden;fillColor=none;top=0;left=0;bottom=0;right=0;pointerEvents=1;" parent="tr0Whg6YNkIq0rUrmcpO-75" vertex="1">
          <mxGeometry x="60" width="80" height="40" as="geometry">
            <mxRectangle width="80" height="40" as="alternateBounds" />
          </mxGeometry>
        </mxCell>
        <mxCell id="tr0Whg6YNkIq0rUrmcpO-78" value="&lt;div&gt;&lt;font style=&quot;font-size: 17px;&quot;&gt;&lt;b&gt;User make Comment&lt;br&gt;&lt;/b&gt;&lt;/font&gt;&lt;/div&gt;" style="text;html=1;align=center;verticalAlign=middle;resizable=0;points=[];autosize=1;strokeColor=none;fillColor=none;" parent="1" vertex="1">
          <mxGeometry x="108" y="857" width="190" height="30" as="geometry" />
        </mxCell>
        <mxCell id="tr0Whg6YNkIq0rUrmcpO-89" value="" style="shape=table;startSize=0;container=1;collapsible=0;childLayout=tableLayout;" parent="1" vertex="1">
          <mxGeometry x="319" y="932" width="120" height="40" as="geometry" />
        </mxCell>
        <mxCell id="tr0Whg6YNkIq0rUrmcpO-90" value="" style="shape=tableRow;horizontal=0;startSize=0;swimlaneHead=0;swimlaneBody=0;strokeColor=inherit;top=0;left=0;bottom=0;right=0;collapsible=0;dropTarget=0;fillColor=none;points=[[0,0.5],[1,0.5]];portConstraint=eastwest;" parent="tr0Whg6YNkIq0rUrmcpO-89" vertex="1">
          <mxGeometry width="120" height="40" as="geometry" />
        </mxCell>
        <mxCell id="tr0Whg6YNkIq0rUrmcpO-91" value="&lt;div&gt;&lt;u&gt;User_ID&lt;/u&gt;&lt;/div&gt;" style="shape=partialRectangle;html=1;whiteSpace=wrap;connectable=0;strokeColor=inherit;overflow=hidden;fillColor=none;top=0;left=0;bottom=0;right=0;pointerEvents=1;" parent="tr0Whg6YNkIq0rUrmcpO-90" vertex="1">
          <mxGeometry width="60" height="40" as="geometry">
            <mxRectangle width="60" height="40" as="alternateBounds" />
          </mxGeometry>
        </mxCell>
        <mxCell id="tr0Whg6YNkIq0rUrmcpO-92" value="&lt;div&gt;&lt;u&gt;Item_ID&lt;/u&gt;&lt;/div&gt;" style="shape=partialRectangle;html=1;whiteSpace=wrap;connectable=0;strokeColor=inherit;overflow=hidden;fillColor=none;top=0;left=0;bottom=0;right=0;pointerEvents=1;" parent="tr0Whg6YNkIq0rUrmcpO-90" vertex="1">
          <mxGeometry x="60" width="60" height="40" as="geometry">
            <mxRectangle width="60" height="40" as="alternateBounds" />
          </mxGeometry>
        </mxCell>
        <mxCell id="tr0Whg6YNkIq0rUrmcpO-93" value="&lt;div&gt;&lt;font style=&quot;font-size: 17px;&quot;&gt;&lt;b&gt;User sell Items&lt;br&gt;&lt;/b&gt;&lt;/font&gt;&lt;/div&gt;" style="text;html=1;align=center;verticalAlign=middle;resizable=0;points=[];autosize=1;strokeColor=none;fillColor=none;" parent="1" vertex="1">
          <mxGeometry x="158" y="937" width="140" height="30" as="geometry" />
        </mxCell>
        <mxCell id="tr0Whg6YNkIq0rUrmcpO-94" value="" style="shape=table;startSize=0;container=1;collapsible=0;childLayout=tableLayout;" parent="1" vertex="1">
          <mxGeometry x="319" y="1012" width="120" height="40" as="geometry" />
        </mxCell>
        <mxCell id="tr0Whg6YNkIq0rUrmcpO-95" value="" style="shape=tableRow;horizontal=0;startSize=0;swimlaneHead=0;swimlaneBody=0;strokeColor=inherit;top=0;left=0;bottom=0;right=0;collapsible=0;dropTarget=0;fillColor=none;points=[[0,0.5],[1,0.5]];portConstraint=eastwest;" parent="tr0Whg6YNkIq0rUrmcpO-94" vertex="1">
          <mxGeometry width="120" height="40" as="geometry" />
        </mxCell>
        <mxCell id="tr0Whg6YNkIq0rUrmcpO-96" value="&lt;div&gt;&lt;u&gt;User_ID&lt;/u&gt;&lt;/div&gt;" style="shape=partialRectangle;html=1;whiteSpace=wrap;connectable=0;strokeColor=inherit;overflow=hidden;fillColor=none;top=0;left=0;bottom=0;right=0;pointerEvents=1;" parent="tr0Whg6YNkIq0rUrmcpO-95" vertex="1">
          <mxGeometry width="60" height="40" as="geometry">
            <mxRectangle width="60" height="40" as="alternateBounds" />
          </mxGeometry>
        </mxCell>
        <mxCell id="tr0Whg6YNkIq0rUrmcpO-97" value="&lt;div&gt;&lt;u&gt;Item_ID&lt;/u&gt;&lt;/div&gt;" style="shape=partialRectangle;html=1;whiteSpace=wrap;connectable=0;strokeColor=inherit;overflow=hidden;fillColor=none;top=0;left=0;bottom=0;right=0;pointerEvents=1;" parent="tr0Whg6YNkIq0rUrmcpO-95" vertex="1">
          <mxGeometry x="60" width="60" height="40" as="geometry">
            <mxRectangle width="60" height="40" as="alternateBounds" />
          </mxGeometry>
        </mxCell>
        <mxCell id="tr0Whg6YNkIq0rUrmcpO-98" value="&lt;div&gt;&lt;font style=&quot;font-size: 17px;&quot;&gt;&lt;b&gt;User Order Items&lt;br&gt;&lt;/b&gt;&lt;/font&gt;&lt;/div&gt;" style="text;html=1;align=center;verticalAlign=middle;resizable=0;points=[];autosize=1;strokeColor=none;fillColor=none;" parent="1" vertex="1">
          <mxGeometry x="138" y="1017" width="160" height="30" as="geometry" />
        </mxCell>
        <mxCell id="tr0Whg6YNkIq0rUrmcpO-101" value="" style="endArrow=classic;html=1;rounded=0;entryX=0.053;entryY=0.995;entryDx=0;entryDy=0;entryPerimeter=0;edgeStyle=orthogonalEdgeStyle;elbow=vertical;exitX=0.243;exitY=0.008;exitDx=0;exitDy=0;exitPerimeter=0;" parent="1" source="tr0Whg6YNkIq0rUrmcpO-94" target="tr0Whg6YNkIq0rUrmcpO-5" edge="1">
          <mxGeometry width="50" height="50" relative="1" as="geometry">
            <mxPoint x="350" y="1011" as="sourcePoint" />
            <mxPoint x="349.1920000000001" y="250.8" as="targetPoint" />
            <Array as="points">
              <mxPoint x="348" y="991" />
              <mxPoint x="1000" y="991" />
              <mxPoint x="1000" y="251" />
              <mxPoint x="349" y="251" />
            </Array>
          </mxGeometry>
        </mxCell>
        <mxCell id="tr0Whg6YNkIq0rUrmcpO-104" value="" style="endArrow=classic;html=1;rounded=0;exitX=0.258;exitY=0.012;exitDx=0;exitDy=0;exitPerimeter=0;entryX=0.054;entryY=1.003;entryDx=0;entryDy=0;entryPerimeter=0;edgeStyle=orthogonalEdgeStyle;elbow=vertical;" parent="1" source="tr0Whg6YNkIq0rUrmcpO-90" target="tr0Whg6YNkIq0rUrmcpO-5" edge="1">
          <mxGeometry width="50" height="50" relative="1" as="geometry">
            <mxPoint x="358.36" y="851.7600000000001" as="sourcePoint" />
            <mxPoint x="359.1920000000001" y="250.24" as="targetPoint" />
            <Array as="points">
              <mxPoint x="350" y="921" />
              <mxPoint x="1000" y="921" />
              <mxPoint x="1000" y="251" />
              <mxPoint x="349" y="251" />
            </Array>
          </mxGeometry>
        </mxCell>
        <mxCell id="tr0Whg6YNkIq0rUrmcpO-106" value="" style="endArrow=classic;html=1;rounded=0;entryX=0.054;entryY=1.003;entryDx=0;entryDy=0;entryPerimeter=0;edgeStyle=orthogonalEdgeStyle;elbow=vertical;strokeColor=default;exitX=0.214;exitY=-0.001;exitDx=0;exitDy=0;exitPerimeter=0;" parent="1" source="tr0Whg6YNkIq0rUrmcpO-75" edge="1">
          <mxGeometry width="50" height="50" relative="1" as="geometry">
            <mxPoint x="350" y="851" as="sourcePoint" />
            <mxPoint x="349" y="211" as="targetPoint" />
            <Array as="points">
              <mxPoint x="349" y="831" />
              <mxPoint x="1000" y="831" />
              <mxPoint x="1000" y="251" />
              <mxPoint x="349" y="251" />
            </Array>
          </mxGeometry>
        </mxCell>
        <mxCell id="tr0Whg6YNkIq0rUrmcpO-110" value="" style="endArrow=classic;html=1;rounded=0;entryX=0.121;entryY=1.007;entryDx=0;entryDy=0;entryPerimeter=0;edgeStyle=orthogonalEdgeStyle;elbow=vertical;strokeColor=#66FFB3;" parent="1" target="tr0Whg6YNkIq0rUrmcpO-14" edge="1">
          <mxGeometry width="50" height="50" relative="1" as="geometry">
            <mxPoint x="350" y="931" as="sourcePoint" />
            <mxPoint x="360" y="351" as="targetPoint" />
            <Array as="points">
              <mxPoint x="350" y="911" />
              <mxPoint x="980" y="911" />
              <mxPoint x="980" y="351" />
              <mxPoint x="350" y="351" />
            </Array>
          </mxGeometry>
        </mxCell>
        <mxCell id="tr0Whg6YNkIq0rUrmcpO-112" value="" style="edgeStyle=none;orthogonalLoop=1;jettySize=auto;html=1;rounded=0;entryX=0.049;entryY=1.015;entryDx=0;entryDy=0;entryPerimeter=0;strokeColor=#007FFF;exitX=0.411;exitY=-0.013;exitDx=0;exitDy=0;exitPerimeter=0;" parent="1" source="tr0Whg6YNkIq0rUrmcpO-43" target="tr0Whg6YNkIq0rUrmcpO-21" edge="1">
          <mxGeometry width="80" relative="1" as="geometry">
            <mxPoint x="430" y="521" as="sourcePoint" />
            <mxPoint x="530" y="511" as="targetPoint" />
            <Array as="points">
              <mxPoint x="430" y="471" />
              <mxPoint x="348" y="471" />
            </Array>
          </mxGeometry>
        </mxCell>
        <mxCell id="tr0Whg6YNkIq0rUrmcpO-113" value="" style="edgeStyle=none;orthogonalLoop=1;jettySize=auto;html=1;rounded=0;exitX=0.847;exitY=0.006;exitDx=0;exitDy=0;exitPerimeter=0;strokeColor=#007FFF;" parent="1" source="tr0Whg6YNkIq0rUrmcpO-49" edge="1">
          <mxGeometry width="80" relative="1" as="geometry">
            <mxPoint x="461.47" y="649" as="sourcePoint" />
            <mxPoint x="348" y="450.76" as="targetPoint" />
            <Array as="points">
              <mxPoint x="480" y="631" />
              <mxPoint x="760" y="631" />
              <mxPoint x="760" y="471" />
              <mxPoint x="348" y="471" />
            </Array>
          </mxGeometry>
        </mxCell>
        <mxCell id="tr0Whg6YNkIq0rUrmcpO-114" value="" style="edgeStyle=none;orthogonalLoop=1;jettySize=auto;html=1;rounded=0;exitX=0.478;exitY=0.003;exitDx=0;exitDy=0;exitPerimeter=0;entryX=0.053;entryY=0.944;entryDx=0;entryDy=0;entryPerimeter=0;" parent="1" source="tr0Whg6YNkIq0rUrmcpO-49" target="tr0Whg6YNkIq0rUrmcpO-5" edge="1">
          <mxGeometry width="80" relative="1" as="geometry">
            <mxPoint x="450" y="491" as="sourcePoint" />
            <mxPoint x="530" y="491" as="targetPoint" />
            <Array as="points">
              <mxPoint x="410" y="621" />
              <mxPoint x="1000" y="621" />
              <mxPoint x="1000" y="251" />
              <mxPoint x="690" y="251" />
              <mxPoint x="350" y="251" />
            </Array>
          </mxGeometry>
        </mxCell>
        <mxCell id="tr0Whg6YNkIq0rUrmcpO-116" value="" style="edgeStyle=none;orthogonalLoop=1;jettySize=auto;html=1;rounded=0;exitX=0.285;exitY=0;exitDx=0;exitDy=0;exitPerimeter=0;entryX=0.049;entryY=1;entryDx=0;entryDy=0;entryPerimeter=0;strokeColor=#007FFF;" parent="1" source="tr0Whg6YNkIq0rUrmcpO-55" target="tr0Whg6YNkIq0rUrmcpO-20" edge="1">
          <mxGeometry width="80" relative="1" as="geometry">
            <mxPoint x="470" y="671" as="sourcePoint" />
            <mxPoint x="550" y="671" as="targetPoint" />
            <Array as="points">
              <mxPoint x="416" y="741" />
              <mxPoint x="760" y="741" />
              <mxPoint x="760" y="471" />
              <mxPoint x="348" y="471" />
            </Array>
          </mxGeometry>
        </mxCell>
        <mxCell id="tr0Whg6YNkIq0rUrmcpO-118" value="" style="edgeStyle=none;orthogonalLoop=1;jettySize=auto;html=1;rounded=0;exitX=0.712;exitY=-0.079;exitDx=0;exitDy=0;exitPerimeter=0;entryX=0.138;entryY=1.037;entryDx=0;entryDy=0;entryPerimeter=0;strokeColor=#CC99FF;" parent="1" source="tr0Whg6YNkIq0rUrmcpO-75" target="tr0Whg6YNkIq0rUrmcpO-43" edge="1">
          <mxGeometry width="80" relative="1" as="geometry">
            <mxPoint x="760" y="681" as="sourcePoint" />
            <mxPoint x="840" y="681" as="targetPoint" />
            <Array as="points">
              <mxPoint x="420" y="821" />
              <mxPoint x="680" y="821" />
              <mxPoint x="680" y="601" />
              <mxPoint x="356" y="601" />
            </Array>
          </mxGeometry>
        </mxCell>
        <mxCell id="tr0Whg6YNkIq0rUrmcpO-119" value="" style="edgeStyle=none;orthogonalLoop=1;jettySize=auto;html=1;rounded=0;exitX=0.782;exitY=-0.058;exitDx=0;exitDy=0;exitPerimeter=0;entryX=0.048;entryY=0.999;entryDx=0;entryDy=0;entryPerimeter=0;strokeColor=#007FFF;" parent="1" source="tr0Whg6YNkIq0rUrmcpO-90" target="tr0Whg6YNkIq0rUrmcpO-21" edge="1">
          <mxGeometry width="80" relative="1" as="geometry">
            <mxPoint x="570" y="891" as="sourcePoint" />
            <mxPoint x="650" y="891" as="targetPoint" />
            <Array as="points">
              <mxPoint x="413" y="901" />
              <mxPoint x="760" y="901" />
              <mxPoint x="760" y="471" />
              <mxPoint x="347" y="471" />
            </Array>
          </mxGeometry>
        </mxCell>
        <mxCell id="tr0Whg6YNkIq0rUrmcpO-123" value="" style="edgeStyle=none;orthogonalLoop=1;jettySize=auto;html=1;rounded=0;exitX=0.782;exitY=-0.058;exitDx=0;exitDy=0;exitPerimeter=0;entryX=0.048;entryY=0.999;entryDx=0;entryDy=0;entryPerimeter=0;strokeColor=#007FFF;" parent="1" source="tr0Whg6YNkIq0rUrmcpO-90" target="tr0Whg6YNkIq0rUrmcpO-21" edge="1">
          <mxGeometry width="80" relative="1" as="geometry">
            <mxPoint x="413" y="930" as="sourcePoint" />
            <mxPoint x="347" y="450" as="targetPoint" />
            <Array as="points">
              <mxPoint x="413" y="901" />
              <mxPoint x="760" y="901" />
              <mxPoint x="760" y="471" />
              <mxPoint x="347" y="471" />
            </Array>
          </mxGeometry>
        </mxCell>
        <mxCell id="tr0Whg6YNkIq0rUrmcpO-124" value="" style="edgeStyle=none;orthogonalLoop=1;jettySize=auto;html=1;rounded=0;entryX=0.047;entryY=1.008;entryDx=0;entryDy=0;entryPerimeter=0;strokeColor=#007FFF;" parent="1" target="tr0Whg6YNkIq0rUrmcpO-21" edge="1">
          <mxGeometry width="80" relative="1" as="geometry">
            <mxPoint x="410" y="1011" as="sourcePoint" />
            <mxPoint x="900" y="841" as="targetPoint" />
            <Array as="points">
              <mxPoint x="410" y="981" />
              <mxPoint x="760" y="981" />
              <mxPoint x="760" y="471" />
              <mxPoint x="347" y="471" />
            </Array>
          </mxGeometry>
        </mxCell>
        <mxCell id="vyuRnfYYCVV1Z0dcyBoy-8" value="" style="endArrow=classic;html=1;rounded=0;exitX=0.101;exitY=-0.026;exitDx=0;exitDy=0;exitPerimeter=0;entryX=0.048;entryY=0.971;entryDx=0;entryDy=0;entryPerimeter=0;edgeStyle=orthogonalEdgeStyle;" edge="1" parent="1" source="tr0Whg6YNkIq0rUrmcpO-55" target="tr0Whg6YNkIq0rUrmcpO-5">
          <mxGeometry width="50" height="50" relative="1" as="geometry">
            <mxPoint x="550" y="600" as="sourcePoint" />
            <mxPoint x="310" y="120" as="targetPoint" />
            <Array as="points">
              <mxPoint x="353" y="730" />
              <mxPoint x="1000" y="730" />
              <mxPoint x="1000" y="250" />
              <mxPoint x="349" y="250" />
            </Array>
          </mxGeometry>
        </mxCell>
      </root>
    </mxGraphModel>
  </diagram>
</mxfile>
